<svg width="303" height="203" viewBox="0 0 303 203" fill="none" xmlns="http://www.w3.org/2000/svg">
<path fill-rule="evenodd" clip-rule="evenodd" d="M280.774 2.86946C287.878 4.99689 294.974 9.14601 299.265 16.6879C305.883 28.1738 302.643 41.0153 297.748 50.9708C292.62 61.4368 283.921 72.514 273.115 83.5245C267.378 89.4178 260.871 95.4682 253.718 101.575C253.69 124.301 246.01 146.361 231.911 164.215C217.813 182.07 198.111 194.685 175.965 200.039C150.87 206.008 124.442 202.353 101.923 189.799C93.1014 192.973 84.1301 195.717 75.041 198.022C60.0028 201.773 45.9827 203.658 34.3099 202.792C23.161 201.97 10.3971 198.254 3.76906 186.803C-0.592556 179.242 -0.676476 170.934 1.04392 163.605C2.76303 156.352 6.42465 149.064 11.0507 142.034C19.7668 128.899 33.4055 114.541 50.2729 100.206C50.4856 82.5796 55.3007 65.3127 64.2434 50.1078C73.1862 34.903 85.9477 22.2851 101.27 13.4983C116.592 4.7116 133.945 0.0594372 151.619 0.000565777C169.293 -0.0583056 186.677 4.47814 202.057 13.1626C222.768 6.24986 241.977 1.72291 257.631 0.808781C265.802 0.319451 273.754 0.783707 280.774 2.86946ZM228.037 34.1561C229.393 35.6638 230.694 37.2333 231.95 38.8289L231.994 38.8788L238.402 47.1584C218.68 66.42 189.592 88.1234 155.195 108.217C121.373 127.949 88.5162 142.097 62.1414 149.501L57.7172 139.537C56.8339 137.37 56.0258 135.174 55.2945 132.952C46.0488 141.86 38.9488 150.119 34.2083 157.29C30.5954 162.758 28.7299 166.994 28.0522 169.944C27.6272 171.74 27.7202 172.605 27.7865 172.928C28.1398 173.251 30.021 174.728 36.3587 175.218C43.9064 175.765 54.6945 174.582 68.3186 171.178C75.7859 169.317 83.8733 166.858 92.4413 163.821C115.571 155.245 141.106 143.13 166.852 128.094C192.615 113.062 215.854 96.9549 234.875 81.2288C241.764 75.395 247.928 69.6923 253.263 64.2261C263.08 54.192 269.541 45.5331 272.861 38.8031C275.615 33.1819 275.3 30.8641 275.182 30.4505C274.46 29.944 273.649 29.5783 272.792 29.3728C270.047 28.544 265.647 28.0364 259.263 28.4304C250.788 28.9146 240.238 30.8491 228.055 34.1608L228.037 34.1561Z" fill="white"/>
</svg>
